<svg xmlns="http://www.w3.org/2000/svg" viewBox="0 0 1024 1024">
  <path fill="#14b8a6" d="M512 64C264.6 64 64 264.6 64 512s200.6 448 448 448 448-200.6 448-448S759.4 64 512 64zm0 820c-205.4 0-372-166.6-372-372s166.6-372 372-372 372 166.6 372 372-166.6 372-372 372zm196.1-591.7c-5.3-7-14.5-10.4-23.2-8.5l-336 72c-7.9 1.7-14.2 8-15.8 15.8l-72 336c-1.9 8.7 1.5 17.9 8.5 23.2 4.1 3.1 9 4.6 13.9 4.6 3.6 0 7.3-.8 10.6-2.4l336-160c6.7-3.2 11.2-9.5 12-16.9.7-7.4-2.8-14.6-8.8-18.3l-160-100c-3.1-1.9-6.8-2.9-10.3-2.9-3.7 0-7.3 1.1-10.4 3.2L340 500.5l88.5 141.6c3.2 5.1 8.8 8.2 14.8 8.2 1.4 0 2.8-.2 4.2-.5l141.6-30.3-146.4-91.5c-4.3-2.7-7-7.3-7.2-12.4-.2-5.1 2.3-9.8 6.4-12.7L679 292.3c4.7-3.3 8.3-8 10.1-13.6z"/>
</svg>
